# xmcd
#
# Track frame offsets:
#	150
#	13843
#	22940
#	45257
#	58790
#	79519
#	96722
#	112272
#	131027
#	144860
#	157440
#	179540
#	195445
#	214382
#	234617
#	244475
#	261890
#	276160
#
# Disc length: 3858
#
# Revision: 1
# Processed by: cddbd v1.5.1PL0 Copyright (c) Steve Scherf et al.
# Submitted via: EasyCDDAExtractor 4.5.0.2
# Normalized: r0:TDELIM( - )
#
DISCID=110f1012
DTITLE=Various Artist - Travelin' Texas
DYEAR=2000
DGENRE=Country
TTITLE0=Shake Russell - Travelin' Texas
TTITLE1=Bradley Jaye Williams - Venus Alley Stomp
TTITLE2=Tish Hinojosa - Roses Around My Feet
TTITLE3=Asleep at the Wheel - That's Your Red Wagon
TTITLE4=Ruthie Foster with Cyd Cassone - Smalltown Blues
TTITLE5=Albert and Gage - What Am I to You
TTITLE6=Terri Hendrix - My Own Place
TTITLE7=Joe Ely - Ranches and Rivers
TTITLE8=Slaid Cleaves - Horeshoe Lounge
TTITLE9=Step Rideau and the Zydeco Outlaws - Standing Room Only
TTITLE10=Butch Hancock and Jimmie Dale Gilmore - If You Were a Bluebird
TTITLE11=Marcia Ball - Why Women Cry
TTITLE12=Champ Hood and the Threadgill Troubadours - Tamp Em Up Solid
TTITLE13=Aztex - Amorique
TTITLE14=Tom Frost III - Kendall County
TTITLE15=W.C. Clark - Rough Edges
TTITLE16=The Groobees - Sleepwalking
TTITLE17=Jimmy LaFave - Walking Away
EXTD=
EXTT0=
EXTT1=
EXTT2=
EXTT3=
EXTT4=
EXTT5=
EXTT6=
EXTT7=
EXTT8=
EXTT9=
EXTT10=
EXTT11=
EXTT12=
EXTT13=
EXTT14=
EXTT15=
EXTT16=
EXTT17=
PLAYORDER=
